<svg width="452" height="380" viewBox="0 0 452 380" fill="none" xmlns="http://www.w3.org/2000/svg">
<path d="M112.5 275.5L107.5 302M107.5 302L125.5 311.5M107.5 302L112.5 322M107.5 302L98.5 315" stroke="black" stroke-width="3"/>
<path d="M134 274L143 298.5M143 298.5H157M143 298.5L157 311M143 298.5V311" stroke="black" stroke-width="3"/>
<path d="M368.624 175C372.805 138.709 370.289 130.345 323.946 108.932C312.189 103.5 299.356 100.728 286.409 100.394L259.162 99.69L229.35 101.249L232.455 153.179C232.55 154.764 233.862 156 235.45 156L245.624 156L257.578 171.894C258.484 173.099 260.143 173.444 261.454 172.701L278.028 163.31L286.264 181.174C286.962 182.689 288.762 183.343 290.27 182.63L314.143 171.35L338.66 194.028C339.716 195.005 341.316 195.095 342.475 194.242L368.624 175Z" fill="#E8CB9F" stroke="#8C8C8C" stroke-width="4"/>
<path d="M374 233C366.124 274.825 358.429 274.496 281 278.205C259.308 281.395 237.264 275.46 220.105 261.812L203 248.205L218.204 208.471C218.861 206.753 220.894 206.026 222.492 206.936L237 215.205L249.568 199.286C250.793 197.734 253.158 197.771 254.334 199.36L271 221.888L292.547 206.561C293.668 205.764 295.187 205.831 296.234 206.724L314 221.888L346.005 206.184C347.19 205.602 348.616 205.864 349.518 206.828L374 233Z" fill="#E8CB9F" stroke="#8C8C8C" stroke-width="4"/>
<path d="M337 229.593C337 251.787 316.432 270.205 290.5 270.205C264.568 270.205 244 251.787 244 229.593C244 208.72 249.343 195.479 257.601 187.436C265.868 179.384 277.401 176.205 290.5 176.205C300.339 176.205 311.964 179.801 321.111 188.225C330.211 196.606 337 209.898 337 229.593Z" fill="#FFF280" stroke="#8C8C8C" stroke-width="4"/>
<path d="M338 154.388C338 176.582 317.432 195 291.5 195C265.568 195 245 176.582 245 154.388C245 151.832 246.122 148.843 248.423 145.711C250.711 142.597 254.074 139.47 258.306 136.68C266.771 131.1 278.515 127 291.5 127C301.399 127 313.187 130.377 322.479 135.648C327.116 138.278 331.043 141.33 333.788 144.578C336.536 147.829 338 151.153 338 154.388Z" fill="#FFF280" stroke="#8C8C8C" stroke-width="4"/>
<path d="M368.467 169.937C372.316 136.534 373.77 93.5946 338.468 63.9301C322.477 50.4927 299.742 51.2506 280.246 58.7448C269.181 62.9978 259.211 69.6771 251.069 78.2913L229.079 101.554L223.142 134.72C222.714 137.112 225.159 138.994 227.362 137.968L253.335 125.866L256.012 147.293C256.246 149.174 258.145 150.368 259.942 149.766L287.863 140.408L290.463 161.223C290.773 163.704 293.803 164.739 295.567 162.967L314.789 143.644L334.318 170.051C335.625 171.819 338.328 171.626 339.371 169.689L352.917 144.538L368.467 169.937Z" fill="url(#paint0_linear_1_37)" stroke="#8C8C8C" stroke-width="4"/>
<path d="M373.245 235.507C365.369 277.332 352.135 320.496 274.706 324.205C242.245 324.205 213.96 302.086 206.135 270.582L201.232 250.839L217.435 222.709C218.44 220.965 220.844 220.685 222.222 222.153L235.119 235.888L250.776 222.378C252.465 220.921 255.098 221.751 255.645 223.914L262.454 250.839L290.589 223.025C292.268 221.365 295.118 222.205 295.628 224.51L301.454 250.839L324.727 222.522C326.051 220.912 328.574 221.109 329.631 222.906L348.392 254.802L373.245 235.507Z" fill="url(#paint1_linear_1_37)" stroke="#8C8C8C" stroke-width="4"/>
<ellipse cx="263.5" cy="165.5" rx="6.5" ry="8.5" fill="black"/>
<ellipse cx="287.5" cy="173.5" rx="6.5" ry="8.5" fill="black"/>
<path d="M262.665 194.876C261.483 195.351 260.285 194.23 260.68 193.019L265.627 177.871C265.907 177.011 266.879 176.593 267.696 176.981L274.862 180.383C275.183 180.535 275.439 180.797 275.586 181.121L278.215 186.948C278.565 187.725 278.198 188.639 277.406 188.956L262.665 194.876Z" fill="#FF9500" stroke="#8C8C8C" stroke-width="3"/>
<path d="M171 239.821C171 262.015 150.432 280.433 124.5 280.433C98.5677 280.433 78 262.015 78 239.821C78 218.947 83.3433 205.707 91.6008 197.664C99.8679 189.612 111.401 186.433 124.5 186.433C134.339 186.433 145.964 190.028 155.111 198.452C164.211 206.834 171 220.126 171 239.821Z" fill="#FFF280" stroke="#8C8C8C" stroke-width="4"/>
<path d="M183.5 162.388C183.5 184.582 162.932 203 137 203C124.11 203 114.16 198.425 107.422 191.159C100.663 183.872 97 173.729 97 162.388C97 156.911 100.386 150.088 107.213 144.565C113.987 139.085 124.036 135 137 135C146.899 135 158.687 138.377 167.979 143.648C172.616 146.278 176.543 149.33 179.288 152.578C182.036 155.829 183.5 159.153 183.5 162.388Z" fill="#FFF280" stroke="#8C8C8C" stroke-width="4"/>
<ellipse cx="153.5" cy="167.933" rx="6.5" ry="8.5" fill="black"/>
<ellipse cx="166.5" cy="157.933" rx="6.5" ry="8.5" fill="black"/>
<path d="M194.322 173.493C195.505 173.022 195.6 171.385 194.48 170.779L180.315 163.124C179.542 162.707 178.577 163.04 178.227 163.846L174.788 171.756C174.646 172.082 174.625 172.449 174.728 172.789L176.556 178.818C176.811 179.658 177.73 180.101 178.546 179.776L194.322 173.493Z" fill="#FF9500" stroke="#8C8C8C" stroke-width="3"/>
<defs>
<linearGradient id="paint0_linear_1_37" x1="288.624" y1="157.5" x2="342.624" y2="96.5" gradientUnits="userSpaceOnUse">
<stop stop-color="#F6F1EA"/>
<stop offset="1" stop-color="#FAE3C4"/>
</linearGradient>
<linearGradient id="paint1_linear_1_37" x1="309.538" y1="204.872" x2="318" y2="317" gradientUnits="userSpaceOnUse">
<stop stop-color="#F6F1EA"/>
<stop offset="1" stop-color="#FAE3C4"/>
</linearGradient>
</defs>
</svg>
