<svg width="550" height="221" viewBox="0 0 550 221" fill="none" xmlns="http://www.w3.org/2000/svg">
<path d="M508.621 103.631C526.137 136.447 506.72 169.2 480.22 178.06C453.739 186.914 418.231 171.587 412.768 135.688C409.939 117.098 410.49 100.37 415.009 87.2613C419.496 74.2465 427.871 64.8154 440.903 60.4584C453.806 56.1446 466.78 59.6149 478.621 67.9316C490.487 76.2656 500.991 89.3368 508.621 103.631Z" fill="url(#paint0_linear_1_144)" stroke="#8C8C8C" stroke-width="5"/>
<path d="M415.918 144.649L423.653 131.519L435.523 143.367L441.199 125.653L452.12 137.818L458.116 124.215L472.984 130.842" stroke="#8C8C8C" stroke-width="5"/>
<path d="M70.224 77.504C71.8453 77.504 73.296 77.5467 74.576 77.632L78.032 167.232C76.5813 167.488 75.0027 167.659 73.296 167.744C71.6747 167.829 70.0533 167.872 68.432 167.872C66.896 167.872 65.36 167.872 63.824 167.872C62.3733 167.872 61.136 167.915 60.112 168H59.984C59.5573 165.184 59.2587 162.283 59.088 159.296C59.0027 156.224 58.9173 153.195 58.832 150.208C58.832 147.221 58.7893 144.235 58.704 141.248C58.6187 138.261 58.4053 135.403 58.064 132.672L57.936 132.544C55.4613 132.117 52.9867 131.904 50.512 131.904C48.0373 131.904 45.5627 132.203 43.088 132.8C42.832 135.787 42.704 138.731 42.704 141.632C42.7893 144.533 42.8747 147.435 42.96 150.336C43.0453 153.237 43.0453 156.096 42.96 158.912C42.96 161.643 42.7467 164.373 42.32 167.104C41.296 167.701 39.9307 168 38.224 168C36.5173 168 34.8107 167.915 33.104 167.744C31.3973 167.573 29.776 167.445 28.24 167.36C26.7893 167.275 25.68 167.445 24.912 167.872C24.7413 165.483 24.528 162.24 24.272 158.144C24.1013 153.963 23.9307 149.312 23.76 144.192C23.5893 138.987 23.4187 133.483 23.248 127.68C23.1627 121.877 23.0773 116.075 22.992 110.272C22.9067 104.384 22.864 98.752 22.864 93.376C22.9493 87.9147 23.0347 83.008 23.12 78.656V78.528H23.248H23.504C24.784 78.784 26.1067 78.8693 27.472 78.784C28.9227 78.6987 30.3307 78.6133 31.696 78.528C33.1467 78.4427 34.5547 78.4 35.92 78.4C37.2853 78.4 38.5653 78.5707 39.76 78.912C40.528 84.8 40.912 90.5173 40.912 96.064C40.912 101.611 41.424 107.115 42.448 112.576H42.576C44.7093 113.088 47.0133 113.259 49.488 113.088C51.9627 112.832 54.2667 112.619 56.4 112.448H56.528C57.04 106.56 57.296 101.056 57.296 95.936C57.3813 90.816 57.296 85.184 57.04 79.04C58.064 78.6987 59.3013 78.4 60.752 78.144C62.288 77.888 63.8667 77.7173 65.488 77.632C67.1093 77.4613 68.688 77.4187 70.224 77.504ZM130.771 103.872C132.904 103.957 135.336 104.085 138.067 104.256C138.152 104.768 138.195 105.28 138.195 105.792C138.28 106.304 138.323 106.816 138.323 107.328V108.608C138.067 117.824 138.11 126.912 138.451 135.872C138.792 144.747 138.664 153.749 138.067 162.88C138.067 163.989 138.024 165.099 137.939 166.208C137.939 167.317 137.427 167.957 136.403 168.128H134.867C133.502 168.128 132.094 168.085 130.643 168C129.278 167.829 127.912 167.744 126.547 167.744C125.608 167.744 124.67 167.829 123.731 168C122.878 168.085 121.982 168.128 121.043 168.128C120.446 167.957 120.019 167.616 119.763 167.104C119.592 166.592 119.507 165.995 119.507 165.312C119.507 164.373 119.592 163.605 119.763 163.008C119.934 162.411 120.019 161.685 120.019 160.832C117.971 162.88 115.368 164.629 112.211 166.08C109.139 167.531 106.11 168.256 103.123 168.256C99.795 168.256 96.9363 167.104 94.547 164.8C92.243 162.496 90.323 159.637 88.787 156.224C87.251 152.811 86.099 149.099 85.331 145.088C84.6483 141.077 84.307 137.365 84.307 133.952C84.307 129.685 84.8617 125.76 85.971 122.176C87.0803 118.592 88.5737 115.52 90.451 112.96C92.4137 110.315 94.7177 108.267 97.363 106.816C100.008 105.28 102.824 104.469 105.811 104.384C107.347 104.384 108.755 104.427 110.035 104.512C111.4 104.512 112.638 104.725 113.747 105.152C114.856 105.493 115.838 106.091 116.691 106.944C117.544 107.712 118.27 108.821 118.867 110.272C118.782 108.907 118.824 107.755 118.995 106.816C119.251 105.792 119.379 104.768 119.379 103.744C119.379 103.659 119.635 103.616 120.147 103.616C120.744 103.531 121.384 103.531 122.067 103.616C122.75 103.616 123.432 103.616 124.115 103.616C124.798 103.616 125.267 103.616 125.523 103.616C126.974 103.701 128.723 103.787 130.771 103.872ZM104.403 124.096C102.44 125.717 101.246 127.595 100.819 129.728C100.478 130.837 100.264 131.989 100.179 133.184C100.094 134.293 100.051 135.403 100.051 136.512C100.051 140.352 101.032 143.637 102.995 146.368C105.043 149.013 107.859 150.336 111.443 150.336C113.576 150.336 115.155 149.995 116.179 149.312C117.288 148.544 118.056 147.52 118.483 146.24C118.995 144.875 119.251 143.253 119.251 141.376C119.336 139.413 119.379 137.237 119.379 134.848C119.379 131.861 119.336 129.515 119.251 127.808C119.251 126.016 119.038 124.651 118.611 123.712C118.27 122.773 117.63 122.176 116.691 121.92C115.838 121.664 114.515 121.536 112.723 121.536C109.224 121.536 106.451 122.389 104.403 124.096ZM165.918 80.576C167.369 80.6613 168.819 80.6187 170.27 80.448V97.6C170.27 98.7093 170.27 99.8613 170.27 101.056C170.355 102.251 170.398 103.488 170.398 104.768C173.043 104.683 175.817 104.555 178.718 104.384C181.705 104.213 185.374 104 189.726 103.744C190.323 104.427 190.665 105.451 190.75 106.816C190.835 108.096 190.835 109.504 190.75 111.04C190.665 112.576 190.537 114.155 190.366 115.776C190.281 117.312 190.323 118.635 190.494 119.744H170.654C170.654 124.352 170.654 128.875 170.654 133.312C170.654 137.664 170.697 141.76 170.782 145.6C171.635 146.795 172.873 147.733 174.494 148.416C176.115 149.099 177.865 149.653 179.742 150.08C181.619 150.421 183.497 150.635 185.374 150.72C187.337 150.805 189.043 150.805 190.494 150.72C190.665 151.915 190.835 153.237 191.006 154.688C191.177 156.139 191.305 157.632 191.39 159.168C191.475 160.704 191.433 162.24 191.262 163.776C191.177 165.312 190.921 166.72 190.494 168C187.081 168.171 183.539 168.171 179.87 168C176.201 167.744 172.745 167.232 169.502 166.464C166.259 165.696 163.358 164.544 160.798 163.008C158.323 161.472 156.531 159.381 155.422 156.736C154.313 150.165 153.673 143.979 153.502 138.176C153.331 132.288 153.289 126.229 153.374 120C152.009 120.085 150.558 120.128 149.022 120.128C147.571 120.128 145.95 120.128 144.158 120.128L144.542 104.512C146.249 104.597 147.827 104.64 149.278 104.64C150.814 104.64 152.265 104.64 153.63 104.64C153.63 102.763 153.587 100.757 153.502 98.624C153.417 96.4053 153.374 94.1867 153.374 91.968C153.374 89.7493 153.374 87.616 153.374 85.568C153.459 83.52 153.587 81.6853 153.758 80.064C154.867 79.8933 156.062 79.8507 157.342 79.936C158.707 80.0213 160.115 80.1493 161.566 80.32C163.017 80.4053 164.467 80.4907 165.918 80.576ZM242.554 143.04C244.005 143.04 245.199 143.168 246.138 143.424C245.967 145.643 245.797 147.819 245.626 149.952C245.455 152.085 245.242 154.091 244.986 155.968C244.73 157.76 244.389 159.339 243.962 160.704C243.621 161.984 243.151 162.923 242.554 163.52C241.103 165.568 239.183 167.019 236.794 167.872C234.49 168.725 231.973 169.237 229.242 169.408C226.511 169.664 223.695 169.664 220.794 169.408C217.893 169.237 215.247 169.152 212.858 169.152C208.506 168.384 204.837 166.507 201.85 163.52C199.546 161.472 197.967 158.912 197.114 155.84C196.261 152.768 195.749 149.568 195.578 146.24C195.407 142.827 195.365 139.413 195.45 136C195.621 132.587 195.535 129.472 195.194 126.656C195.194 123.584 195.45 120.512 195.962 117.44C196.047 116.501 196.346 115.221 196.858 113.6C197.37 111.979 197.754 110.741 198.01 109.888C198.607 108.608 199.546 107.499 200.826 106.56C202.191 105.621 203.727 104.853 205.434 104.256C207.226 103.573 209.103 103.104 211.066 102.848C213.114 102.592 215.162 102.464 217.21 102.464C218.917 102.635 220.538 102.677 222.074 102.592C223.695 102.421 225.402 102.421 227.194 102.592C229.925 102.763 232.527 103.275 235.002 104.128C237.477 104.981 239.61 106.261 241.402 107.968C242.597 108.821 243.493 109.973 244.09 111.424C244.773 112.875 245.285 114.581 245.626 116.544C245.967 118.507 246.138 120.725 246.138 123.2C246.223 125.589 246.309 128.192 246.394 131.008C245.285 131.264 244.005 131.392 242.554 131.392C241.189 131.392 239.738 131.349 238.202 131.264C236.751 131.179 235.301 131.051 233.85 130.88C232.485 130.709 231.247 130.539 230.138 130.368C229.711 127.381 228.474 125.077 226.426 123.456C224.378 121.749 221.69 121.323 218.362 122.176C216.57 122.688 215.119 123.627 214.01 124.992C213.498 125.333 213.114 126.187 212.858 127.552C212.517 130.197 212.346 132.885 212.346 135.616C212.346 138.347 212.261 141.205 212.09 144.192C211.919 146.155 212.389 147.691 213.498 148.8C214.693 149.909 216.101 150.677 217.722 151.104C219.343 151.445 221.007 151.531 222.714 151.36C224.421 151.104 225.786 150.635 226.81 149.952C227.663 149.355 228.303 148.373 228.73 147.008C229.242 145.557 229.626 144.277 229.882 143.168C230.735 143.253 231.887 143.296 233.338 143.296C234.789 143.211 236.325 143.125 237.946 143.04C239.567 142.955 241.103 142.955 242.554 143.04ZM270.251 107.712C270.251 109.504 270.251 110.571 270.251 110.912C270.678 110.656 271.19 110.357 271.787 110.016C272.47 109.675 273.024 109.333 273.451 108.992C275.243 107.712 277.248 106.688 279.467 105.92C281.686 105.152 283.947 104.725 286.251 104.64C288.64 104.555 290.944 104.811 293.163 105.408C295.382 106.005 297.387 107.072 299.179 108.608C300.032 109.376 300.672 110.997 301.099 113.472C301.611 115.861 301.91 118.763 301.995 122.176C302.166 125.589 302.208 129.344 302.123 133.44C302.123 137.451 302.08 141.547 301.995 145.728C301.91 149.824 301.824 153.792 301.739 157.632C301.654 161.472 301.696 164.843 301.867 167.744C298.88 168.171 296.192 168.341 293.803 168.256C291.499 168.256 288.854 168.256 285.867 168.256C285.696 166.293 285.611 164.075 285.611 161.6C285.611 159.125 285.611 156.565 285.611 153.92C285.696 151.275 285.696 148.629 285.611 145.984C285.611 143.339 285.526 140.864 285.355 138.56C285.27 137.536 285.184 136.427 285.099 135.232C285.014 133.952 284.843 132.715 284.587 131.52C284.416 130.325 284.118 129.259 283.691 128.32C283.35 127.381 282.838 126.656 282.155 126.144C282.07 126.059 281.984 126.016 281.899 126.016C281.814 126.016 281.728 125.973 281.643 125.888C280.96 125.547 279.936 125.291 278.571 125.12C277.291 124.864 276.011 124.949 274.731 125.376C273.451 125.717 272.299 126.485 271.275 127.68C270.251 128.789 269.654 130.496 269.483 132.8C269.312 135.787 269.27 138.731 269.355 141.632C269.44 144.448 269.526 147.307 269.611 150.208C269.782 153.024 269.867 155.84 269.867 158.656C269.867 161.472 269.696 164.288 269.355 167.104V167.616C267.904 168.043 266.624 168.299 265.515 168.384C264.491 168.469 263.424 168.469 262.315 168.384C261.206 168.384 259.968 168.341 258.603 168.256C257.238 168.171 255.531 168.213 253.483 168.384C253.483 164.885 253.44 160.704 253.355 155.84C253.355 150.891 253.312 145.6 253.227 139.968C253.227 134.336 253.227 128.533 253.227 122.56C253.227 116.501 253.227 110.613 253.227 104.896C253.227 99.1787 253.227 93.8027 253.227 88.768C253.312 83.648 253.398 79.2107 253.483 75.456C254.507 75.5413 255.36 75.6267 256.043 75.712C256.726 75.712 257.366 75.712 257.963 75.712C258.56 75.712 259.2 75.712 259.883 75.712C260.566 75.6267 261.419 75.5413 262.443 75.456C262.784 75.456 263.382 75.4133 264.235 75.328C265.088 75.1573 265.942 75.0293 266.795 74.944C267.648 74.8587 268.416 74.8587 269.099 74.944C269.782 74.944 270.123 75.072 270.123 75.328C270.208 75.7547 270.251 76.9067 270.251 78.784C270.251 80.576 270.251 82.752 270.251 85.312C270.251 87.7867 270.251 90.4747 270.251 93.376C270.251 96.192 270.251 98.8373 270.251 101.312C270.251 103.787 270.251 105.92 270.251 107.712ZM330.314 136.256C328.437 136.171 327.071 136.043 326.218 135.872V138.176C326.303 140.736 326.389 142.827 326.474 144.448C326.645 146.069 327.199 147.648 328.138 149.184C329.162 151.147 330.613 152.597 332.49 153.536C334.367 154.475 336.202 154.773 337.994 154.432C339.786 154.091 341.279 153.067 342.474 151.36C343.754 149.568 344.309 146.923 344.138 143.424C344.991 143.509 346.143 143.552 347.594 143.552C349.045 143.467 350.538 143.381 352.074 143.296C353.695 143.211 355.231 143.211 356.682 143.296C358.133 143.296 359.327 143.424 360.266 143.68C360.095 145.899 359.925 148.075 359.754 150.208C359.583 152.341 359.37 154.347 359.114 156.224C358.858 158.016 358.517 159.595 358.09 160.96C357.749 162.24 357.279 163.136 356.682 163.648C355.231 165.696 353.354 167.147 351.05 168C348.746 168.853 346.229 169.365 343.498 169.536C340.767 169.707 337.951 169.707 335.05 169.536C332.234 169.365 329.631 169.28 327.242 169.28C324.853 168.939 322.634 168.171 320.586 166.976C318.282 165.355 316.362 163.264 314.826 160.704C313.29 158.059 312.053 155.2 311.114 152.128C310.175 148.971 309.535 145.643 309.194 142.144C308.853 138.645 308.767 135.147 308.938 131.648C309.194 128.491 309.45 125.461 309.706 122.56C310.047 119.573 310.73 116.672 311.754 113.856C312.863 111.381 314.57 109.291 316.874 107.584C319.178 105.792 321.781 104.469 324.682 103.616C327.583 102.677 330.655 102.165 333.898 102.08C337.141 101.995 340.298 102.336 343.37 103.104C347.295 103.787 350.453 105.152 352.842 107.2C355.231 109.248 357.023 111.723 358.218 114.624C359.498 117.525 360.266 120.725 360.522 124.224C360.778 127.723 360.778 131.264 360.522 134.848C359.925 135.019 358.773 135.189 357.066 135.36C355.445 135.531 353.482 135.701 351.178 135.872C348.959 136.043 346.57 136.171 344.01 136.256C341.45 136.341 338.975 136.384 336.586 136.384C334.282 136.384 332.191 136.341 330.314 136.256ZM345.29 119.488C344.437 117.952 343.242 116.8 341.706 116.032C341.023 115.605 340.341 115.307 339.658 115.136C338.975 114.88 338.165 114.752 337.226 114.752C335.178 114.752 333.514 114.965 332.234 115.392C330.954 115.819 329.93 116.416 329.162 117.184C328.394 117.952 327.797 118.848 327.37 119.872C327.029 120.896 326.773 121.963 326.602 123.072C326.431 124.011 326.346 124.693 326.346 125.12C326.431 125.461 326.858 125.717 327.626 125.888C328.394 125.973 329.589 126.016 331.21 126.016C332.917 125.931 335.391 125.888 338.634 125.888C340.853 125.888 342.517 125.931 343.626 126.016C344.735 126.101 345.503 126.144 345.93 126.144C346.442 126.059 346.698 125.931 346.698 125.76C346.698 125.504 346.698 125.035 346.698 124.352C346.698 122.645 346.229 121.024 345.29 119.488ZM385.141 107.2C385.226 107.456 385.269 107.883 385.269 108.48C385.61 108.309 386.378 107.968 387.573 107.456C388.853 106.944 390.09 106.475 391.285 106.048C392.906 105.536 394.741 105.152 396.789 104.896C398.837 104.555 400.757 104.341 402.549 104.256C404.341 104.171 405.834 104.171 407.029 104.256C408.309 104.256 408.949 104.299 408.949 104.384C408.949 107.285 408.906 109.845 408.821 112.064C408.821 114.283 408.821 116.288 408.821 118.08C408.821 119.787 408.821 121.365 408.821 122.816C408.821 124.267 408.864 125.632 408.949 126.912L407.797 126.528C407.37 126.357 406.901 126.229 406.389 126.144C405.962 125.973 405.536 125.803 405.109 125.632C404.085 125.376 403.018 125.163 401.909 124.992C400.885 124.821 400.33 124.736 400.245 124.736C397.941 124.48 395.808 124.352 393.845 124.352C391.968 124.352 390.304 124.651 388.853 125.248C387.488 125.845 386.421 126.784 385.653 128.064C384.885 129.344 384.544 131.179 384.629 133.568C384.714 136.555 384.8 139.371 384.885 142.016C384.97 144.661 385.013 147.349 385.013 150.08C385.013 152.725 385.013 155.456 385.013 158.272C385.098 161.003 385.141 163.947 385.141 167.104V167.616C383.69 168.043 382.368 168.299 381.173 168.384C379.978 168.469 378.741 168.469 377.461 168.384C376.181 168.384 374.773 168.341 373.237 168.256C371.786 168.171 370.037 168.213 367.989 168.384C367.989 157.888 367.861 147.392 367.605 136.896C367.434 126.4 367.52 115.52 367.861 104.256C368.885 104.341 369.738 104.427 370.421 104.512C371.104 104.512 371.744 104.512 372.341 104.512C372.938 104.512 373.578 104.512 374.261 104.512C374.944 104.427 375.797 104.341 376.821 104.256C377.162 104.256 377.76 104.213 378.613 104.128C379.552 104.043 380.49 103.957 381.429 103.872C382.453 103.787 383.306 103.787 383.989 103.872C384.757 103.872 385.141 103.957 385.141 104.128C385.141 104.811 385.141 105.323 385.141 105.664C385.141 106.005 385.141 106.304 385.141 106.56C385.141 106.731 385.141 106.944 385.141 107.2Z" fill="#464646"/>
<defs>
<linearGradient id="paint0_linear_1_144" x1="440.178" y1="58.0648" x2="481.081" y2="180.408" gradientUnits="userSpaceOnUse">
<stop stop-color="#F6F1EA"/>
<stop offset="1" stop-color="#FAE3C4"/>
</linearGradient>
</defs>
</svg>
