<svg width="592" height="156" viewBox="0 0 592 156" fill="none" xmlns="http://www.w3.org/2000/svg">
<path d="M571.669 63.5737C587.157 97.3935 565.785 128.906 538.795 136.138C511.824 143.364 477.314 125.907 474.044 89.7425C472.351 71.0144 473.918 54.3513 479.226 41.5415C484.496 28.8236 493.429 19.9192 506.702 16.3628C519.843 12.8416 532.582 17.0943 543.896 26.1157C555.233 35.1558 564.923 48.8415 571.669 63.5737Z" fill="url(#paint0_linear_624_6070)" stroke="#8C8C8C" stroke-width="5"/>
<path d="M476.643 98.8783L485.163 86.2427L496.29 98.7904L503.033 81.4545L513.194 94.2611L520.006 81.0477L534.444 88.5671" stroke="#8C8C8C" stroke-width="5"/>
<path d="M51.12 123V88.32C51.12 82.88 50.28 79 48.6 76.68C47 74.28 44 73.08 39.6 73.08C36.4 73.08 33.44 74.12 30.72 76.2C28.08 78.2 26.32 80.88 25.44 84.24V123H8.64V39H25.44V67.68H26.88C29.04 64.88 31.72 62.6 34.92 60.84C38.2 59.08 42.32 58.2 47.28 58.2C50.72 58.2 53.72 58.64 56.28 59.52C58.84 60.32 60.96 61.76 62.64 63.84C64.4 65.84 65.72 68.56 66.6 72C67.48 75.36 67.92 79.56 67.92 84.6V123H51.12ZM84.5634 64.32C88.1634 62.72 92.5634 61.4 97.7634 60.36C103.043 59.32 108.483 58.8 114.083 58.8C118.483 58.8 122.163 59.32 125.123 60.36C128.163 61.4 130.563 62.92 132.323 64.92C134.083 66.84 135.323 69.2 136.043 72C136.843 74.72 137.243 77.76 137.243 81.12C137.243 85.2 137.083 89.24 136.763 93.24C136.443 97.24 136.283 101.48 136.283 105.96C136.283 109 136.483 111.96 136.883 114.84C137.283 117.72 137.923 120.48 138.803 123.12H125.123L122.363 113.76H120.923C118.843 116.56 116.203 118.96 113.003 120.96C109.803 122.96 105.683 123.96 100.643 123.96C97.6034 123.96 94.8034 123.52 92.2434 122.64C89.7634 121.76 87.6034 120.52 85.7634 118.92C84.0034 117.24 82.6034 115.28 81.5634 113.04C80.6034 110.8 80.1234 108.36 80.1234 105.72C80.1234 98.6 82.4834 93.24 87.2034 89.64C92.0034 85.96 99.2434 84.12 108.923 84.12C111.163 84.12 113.403 84.32 115.643 84.72C117.883 85.04 119.443 85.28 120.323 85.44C120.563 83.76 120.683 82.32 120.683 81.12C120.683 78.08 119.923 75.84 118.403 74.4C116.883 72.96 114.043 72.24 109.883 72.24C106.043 72.24 102.283 72.72 98.6034 73.68C95.0034 74.56 91.8034 75.68 89.0034 77.04L84.5634 64.32ZM106.523 110.52C110.283 110.52 113.283 109.64 115.523 107.88C117.763 106.12 119.403 104.28 120.443 102.36V95.16C120.043 95 119.403 94.84 118.523 94.68C117.723 94.52 116.803 94.36 115.763 94.2C114.803 94.04 113.803 93.92 112.763 93.84C111.803 93.76 110.923 93.72 110.123 93.72C105.803 93.72 102.603 94.52 100.523 96.12C98.4434 97.64 97.4034 99.56 97.4034 101.88C97.4034 104.76 98.2034 106.92 99.8034 108.36C101.483 109.8 103.723 110.52 106.523 110.52ZM146.976 60H156.576V51.36L173.376 46.92V60H190.296V74.04H173.376V95.88C173.376 100.92 173.856 104.56 174.816 106.8C175.856 108.96 177.856 110.04 180.816 110.04C182.656 110.04 184.216 109.92 185.496 109.68C186.776 109.36 188.136 108.88 189.576 108.24L193.056 120.84C190.496 121.96 187.536 122.92 184.176 123.72C180.896 124.52 177.696 124.92 174.576 124.92C168.336 124.92 163.776 123.4 160.896 120.36C158.016 117.24 156.576 112.28 156.576 105.48V74.04H146.976V60ZM249.988 119.16C247.268 121 243.988 122.4 240.148 123.36C236.388 124.32 232.468 124.8 228.388 124.8C222.948 124.8 218.348 124 214.588 122.4C210.908 120.8 207.868 118.52 205.468 115.56C203.148 112.6 201.468 109.12 200.428 105.12C199.388 101.04 198.868 96.52 198.868 91.56C198.868 81.08 201.428 72.92 206.548 67.08C211.748 61.16 219.268 58.2 229.108 58.2C233.908 58.2 237.828 58.6 240.868 59.4C243.988 60.12 246.748 61.08 249.148 62.28L245.068 75.72C242.988 74.84 240.908 74.2 238.828 73.8C236.828 73.32 234.468 73.08 231.748 73.08C226.708 73.08 222.828 74.56 220.108 77.52C217.468 80.4 216.148 85.08 216.148 91.56C216.148 94.12 216.468 96.52 217.108 98.76C217.748 100.92 218.748 102.84 220.108 104.52C221.468 106.2 223.188 107.52 225.268 108.48C227.348 109.44 229.788 109.92 232.588 109.92C235.948 109.92 238.588 109.64 240.508 109.08C242.508 108.44 244.388 107.6 246.148 106.56L249.988 119.16ZM304.948 123V88.32C304.948 82.88 304.108 79 302.428 76.68C300.828 74.28 297.828 73.08 293.428 73.08C290.228 73.08 287.268 74.12 284.548 76.2C281.908 78.2 280.148 80.88 279.268 84.24V123H262.468V39H279.268V67.68H280.708C282.868 64.88 285.548 62.6 288.748 60.84C292.028 59.08 296.148 58.2 301.108 58.2C304.548 58.2 307.548 58.64 310.108 59.52C312.668 60.32 314.788 61.76 316.468 63.84C318.228 65.84 319.548 68.56 320.428 72C321.308 75.36 321.748 79.56 321.748 84.6V123H304.948ZM392.872 117.24C390.152 119.32 386.432 121.12 381.712 122.64C377.072 124.08 372.072 124.8 366.712 124.8C355.912 124.8 347.992 121.84 342.952 115.92C337.912 110 335.392 101.88 335.392 91.56C335.392 80.6 338.232 72.32 343.912 66.72C349.592 61.04 357.592 58.2 367.912 58.2C371.272 58.2 374.592 58.64 377.872 59.52C381.152 60.32 384.072 61.72 386.632 63.72C389.192 65.64 391.232 68.28 392.752 71.64C394.352 74.92 395.152 79 395.152 83.88C395.152 85.56 395.032 87.4 394.792 89.4C394.632 91.4 394.312 93.48 393.832 95.64H351.832C352.232 101.08 353.792 105.12 356.512 107.76C359.312 110.32 363.832 111.6 370.072 111.6C373.832 111.6 377.192 111.08 380.152 110.04C383.192 108.92 385.512 107.8 387.112 106.68L392.872 117.24ZM367.672 71.4C362.712 71.4 359.032 72.76 356.632 75.48C354.232 78.12 352.832 81.52 352.432 85.68H379.552C379.872 81.28 379.072 77.8 377.152 75.24C375.232 72.68 372.072 71.4 367.672 71.4ZM447.442 75.36C445.042 74.56 442.642 74.16 440.242 74.16C436.722 74.16 433.802 75 431.482 76.68C429.242 78.36 427.762 80.48 427.042 83.04V123H410.242V60H423.442L425.242 68.76H426.802C428.402 65.48 430.522 62.96 433.162 61.2C435.882 59.44 438.962 58.56 442.402 58.56C444.562 58.56 447.042 59 449.842 59.88L447.442 75.36Z" fill="#464646"/>
<defs>
<linearGradient id="paint0_linear_624_6070" x1="506.124" y1="13.9295" x2="539.511" y2="138.534" gradientUnits="userSpaceOnUse">
<stop stop-color="#F6F1EA"/>
<stop offset="1" stop-color="#FAE3C4"/>
</linearGradient>
</defs>
</svg>
