<svg width="531" height="221" viewBox="0 0 531 221" fill="none" xmlns="http://www.w3.org/2000/svg">
<path d="M128 139.896C128 150.925 122.97 158.725 114.736 163.865C106.394 169.071 94.6873 171.576 81.5 171.576C68.3127 171.576 56.6055 169.071 48.2643 163.865C40.0303 158.725 35 150.925 35 139.896C35 119.023 40.3433 105.783 48.6008 97.7399C56.8679 89.6878 68.4009 86.5087 81.5 86.5087C91.3388 86.5087 102.964 90.1041 112.111 98.5283C121.211 106.909 128 120.202 128 139.896Z" fill="#FFF280" stroke="#8C8C8C" stroke-width="4"/>
<path d="M123.5 63.3878C123.5 74.7294 119.837 84.8718 113.078 92.1592C106.34 99.4249 96.3896 104 83.5 104C70.6104 104 60.6603 99.4249 53.9217 92.1591C47.1631 84.8718 43.5 74.7294 43.5 63.3878C43.5 57.9108 46.8863 51.088 53.7132 45.5651C60.4873 40.0849 70.5363 36 83.5 36C93.3963 36 103.508 39.1538 111.103 44.2388C118.734 49.3479 123.5 56.1587 123.5 63.3878Z" fill="#FFF280" stroke="#8C8C8C" stroke-width="4"/>
<ellipse cx="97.5" cy="75.0758" rx="6.5" ry="6" fill="black"/>
<ellipse cx="106.5" cy="61.0758" rx="6.5" ry="6" fill="black"/>
<path d="M132.322 77.1354C133.505 76.6644 133.6 75.0274 132.48 74.4223L118.316 66.7674C117.542 66.3495 116.577 66.683 116.227 67.489L112.788 75.3988C112.646 75.7252 112.625 76.0915 112.728 76.4321L114.556 82.4605C114.811 83.3012 115.73 83.7439 116.546 83.4189L132.322 77.1354Z" fill="#FF9500" stroke="#8C8C8C" stroke-width="3"/>
<path d="M283 139.972C283 151.001 288.03 158.801 296.264 163.941C304.606 169.147 316.313 171.652 329.5 171.652C342.687 171.652 354.394 169.147 362.736 163.941C370.97 158.801 376 151.001 376 139.972C376 119.099 370.657 105.858 362.399 97.8157C354.132 89.7636 342.599 86.5845 329.5 86.5845C319.661 86.5845 308.036 90.1799 298.889 98.6041C289.789 106.985 283 120.278 283 139.972Z" fill="#FFF280" stroke="#8C8C8C" stroke-width="4"/>
<path d="M287.5 63.4636C287.5 74.8052 291.163 84.9476 297.922 92.235C304.66 99.5007 314.61 104.076 327.5 104.076C340.39 104.076 350.34 99.5007 357.078 92.235C363.837 84.9476 367.5 74.8052 367.5 63.4636C367.5 57.9866 364.114 51.1638 357.287 45.6409C350.513 40.1607 340.464 36.0758 327.5 36.0758C317.604 36.0758 307.492 39.2296 299.897 44.3146C292.266 49.4237 287.5 56.2345 287.5 63.4636Z" fill="#FFF280" stroke="#8C8C8C" stroke-width="4"/>
<ellipse cx="6.5" cy="6" rx="6.5" ry="6" transform="matrix(-1 0 0 1 320 69.1516)" fill="black"/>
<ellipse cx="6.5" cy="6" rx="6.5" ry="6" transform="matrix(-1 0 0 1 311 55.1516)" fill="black"/>
<path d="M278.678 77.2112C277.495 76.7402 277.4 75.1032 278.52 74.4981L292.684 66.8432C293.458 66.4254 294.423 66.7588 294.773 67.5648L298.212 75.4746C298.354 75.801 298.375 76.1673 298.272 76.5079L296.444 82.5364C296.189 83.377 295.27 83.8197 294.454 83.4947L278.678 77.2112Z" fill="#FF9500" stroke="#8C8C8C" stroke-width="3"/>
<path d="M403 139.972C403 151.001 408.03 158.801 416.264 163.941C424.606 169.147 436.313 171.652 449.5 171.652C462.687 171.652 474.394 169.147 482.736 163.941C490.97 158.801 496 151.001 496 139.972C496 119.099 490.657 105.858 482.399 97.8157C474.132 89.7636 462.599 86.5845 449.5 86.5845C439.661 86.5845 428.036 90.1799 418.889 98.6041C409.789 106.985 403 120.278 403 139.972Z" fill="#FFF280" stroke="#8C8C8C" stroke-width="4"/>
<path d="M407.5 63.4636C407.5 74.8052 411.163 84.9476 417.922 92.235C424.66 99.5007 434.61 104.076 447.5 104.076C460.39 104.076 470.34 99.5007 477.078 92.235C483.837 84.9476 487.5 74.8052 487.5 63.4636C487.5 57.9866 484.114 51.1638 477.287 45.6409C470.513 40.1607 460.464 36.0758 447.5 36.0758C437.604 36.0758 427.492 39.2296 419.897 44.3146C412.266 49.4237 407.5 56.2345 407.5 63.4636Z" fill="#FFF280" stroke="#8C8C8C" stroke-width="4"/>
<ellipse cx="6.5" cy="6" rx="6.5" ry="6" transform="matrix(-1 0 0 1 440 69.1516)" fill="black"/>
<ellipse cx="6.5" cy="6" rx="6.5" ry="6" transform="matrix(-1 0 0 1 431 55.1516)" fill="black"/>
<path d="M398.678 77.2112C397.495 76.7402 397.4 75.1032 398.52 74.4981L412.684 66.8432C413.458 66.4254 414.423 66.7588 414.773 67.5648L418.212 75.4746C418.354 75.801 418.375 76.1673 418.272 76.5079L416.444 82.5364C416.189 83.377 415.27 83.8197 414.454 83.4947L398.678 77.2112Z" fill="#FF9500" stroke="#8C8C8C" stroke-width="3"/>
<path d="M254.919 106.91C261.184 143.932 232.098 169.076 203.891 169.076C175.699 169.076 146.6 143.04 152.861 106.917C156.081 88.3448 161.929 72.5681 170.438 61.481C178.899 50.457 189.971 44.0758 203.891 44.0758C217.702 44.0758 229.04 51.5998 237.696 63.326C246.366 75.0717 252.206 90.8784 254.919 106.91Z" fill="url(#paint0_linear_1_38)" stroke="#8C8C8C" stroke-width="4"/>
<path d="M150 118.076H162.5V129.576L179.5 118.076L190.5 129.576" stroke="#8C8C8C" stroke-width="4"/>
<defs>
<linearGradient id="paint0_linear_1_38" x1="203.962" y1="42.0758" x2="203.962" y2="171.076" gradientUnits="userSpaceOnUse">
<stop stop-color="#F6F1EA"/>
<stop offset="1" stop-color="#FAE3C4"/>
</linearGradient>
</defs>
</svg>
